<svg width="120" height="50" viewBox="0 0 120 50" fill="none" xmlns="http://www.w3.org/2000/svg">
<g clip-path="url(#clip0)">
<path d="M37.1712 9.71717V48C36.6991 47.3939 35.7886 46.4175 34.4397 45.0707C33.0908 43.7239 33.5629 44.1385 31.8093 42.3876C30.0558 40.6368 26.1608 36.8384 24.1712 34.9192C22.2153 33 20.3606 31.1818 18.607 29.4646C16.8534 27.7138 15.3191 26.165 14.0039 24.8182C12.6887 23.4377 11.8119 22.4613 11.3735 21.8889L10.4125 20.5758L10.5642 22.1919V46.3333H5V8C5.37095 8.47138 5.97795 9.14478 6.82101 10.0202C7.6978 10.8956 8.70947 11.9226 9.85603 13.101C11.0363 14.2458 12.3178 15.4916 13.7004 16.8384C15.1167 18.1852 16.5331 19.5488 17.9494 20.9293C19.3995 22.3098 20.8158 23.6734 22.1984 25.0202C23.6148 26.3333 24.8962 27.5623 26.0428 28.7071C27.2231 29.8519 28.2348 30.862 29.0778 31.7374C29.9209 32.6128 30.511 33.2694 30.8483 33.7071L31.8093 35.1212L31.6576 33.404V8.45454L37.1712 9.71717Z" fill="white"/>
<path d="M31.8093 42.3876L31.6576 8.45454C31.6576 8.45454 34.4839 9.27524 39.498 9.27524C40.2631 9.27524 43.1738 9.52777 44.7587 10.0328C46.3774 10.5379 48.5694 11.7374 49.716 12.7475C50.8962 13.7239 51.8067 14.936 52.4475 16.3838C53.0882 17.798 53.4086 19.431 53.4086 21.2828C53.4086 22.2929 53.3074 23.303 53.1051 24.3131C52.9027 25.2896 52.5655 26.2492 52.0934 27.1919C51.655 28.101 51.0817 28.9596 50.3735 29.7677C49.6654 30.5421 48.8054 31.1987 47.7938 31.7374C49.1427 33.8586 50.6096 36.2155 52.1946 38.8081C53.7795 41.367 55.3813 43.8754 57 46.3333H50.3735C49.6991 45.2896 48.9909 44.1953 48.249 43.0505C47.5409 41.9057 46.8158 40.7778 46.0739 39.6667C45.3658 38.5219 44.6576 37.4108 43.9494 36.3333C43.275 35.2222 42.6342 34.1953 42.0272 33.2525L37.1712 33.404V48L31.8093 42.3876ZM37.1712 28.0505H40.8638C42.2127 28.0505 43.3424 27.8317 44.2529 27.3939C45.1634 26.9226 45.8716 26.3502 46.3774 25.6768C46.917 25.0034 47.2879 24.2795 47.4903 23.5051C47.7263 22.7306 47.8444 22.0236 47.8444 21.3838C47.8444 20.7441 47.7263 20.0539 47.4903 19.3131C47.2879 18.5387 46.917 17.8317 46.3774 17.1919C45.8379 16.5185 45.1128 15.963 44.2023 15.5253C43.3256 15.0875 42.2296 14.8687 40.9144 14.8687H37.1712V28.0505Z" fill="white"/>
<path d="M68.3203 24H66.624L60.1816 14.1387V24H58.4854V11.2031H60.1816L66.6416 21.1084V11.2031H68.3203V24ZM72.8291 24H71.2031V14.4902H72.8291V24ZM71.0713 11.9678C71.0713 11.7041 71.1504 11.4814 71.3086 11.2998C71.4727 11.1182 71.7129 11.0273 72.0293 11.0273C72.3457 11.0273 72.5859 11.1182 72.75 11.2998C72.9141 11.4814 72.9961 11.7041 72.9961 11.9678C72.9961 12.2314 72.9141 12.4512 72.75 12.627C72.5859 12.8027 72.3457 12.8906 72.0293 12.8906C71.7129 12.8906 71.4727 12.8027 71.3086 12.627C71.1504 12.4512 71.0713 12.2314 71.0713 11.9678ZM76.9688 22.6729H82.5322V24H74.9824V22.8047L80.2295 15.835H75.0615V14.4902H82.2686V15.6416L76.9688 22.6729ZM85.9951 15.6416C86.7158 14.7568 87.6533 14.3145 88.8076 14.3145C90.8174 14.3145 91.8311 15.4482 91.8486 17.7158V24H90.2227V17.707C90.2168 17.0215 90.0586 16.5146 89.748 16.1865C89.4434 15.8584 88.9658 15.6943 88.3154 15.6943C87.7881 15.6943 87.3252 15.835 86.9268 16.1162C86.5283 16.3975 86.2178 16.7666 85.9951 17.2236V24H84.3691V10.5H85.9951V15.6416ZM95.8213 14.4902L95.874 15.6855C96.6006 14.7715 97.5498 14.3145 98.7217 14.3145C100.731 14.3145 101.745 15.4482 101.763 17.7158V24H100.137V17.707C100.131 17.0215 99.9727 16.5146 99.6621 16.1865C99.3574 15.8584 98.8799 15.6943 98.2295 15.6943C97.7021 15.6943 97.2393 15.835 96.8408 16.1162C96.4424 16.3975 96.1318 16.7666 95.9092 17.2236V24H94.2832V14.4902H95.8213ZM107.326 21.6182L109.541 14.4902H111.281L107.458 25.4678C106.866 27.0498 105.926 27.8408 104.637 27.8408L104.329 27.8145L103.723 27.7002V26.3818L104.162 26.417C104.713 26.417 105.141 26.3057 105.445 26.083C105.756 25.8604 106.011 25.4531 106.21 24.8613L106.57 23.8945L103.178 14.4902H104.953L107.326 21.6182ZM63.1787 39.8232H60.1729V45H58.4766V32.2031H62.7129C64.1543 32.2031 65.2617 32.5312 66.0352 33.1875C66.8145 33.8438 67.2041 34.7988 67.2041 36.0527C67.2041 36.8496 66.9873 37.5439 66.5537 38.1357C66.126 38.7275 65.5283 39.1699 64.7607 39.4629L67.7666 44.8945V45H65.9561L63.1787 39.8232ZM60.1729 38.4434H62.7656C63.6035 38.4434 64.2686 38.2266 64.7607 37.793C65.2588 37.3594 65.5078 36.7793 65.5078 36.0527C65.5078 35.2617 65.2705 34.6553 64.7959 34.2334C64.3271 33.8115 63.6475 33.5977 62.7568 33.5918H60.1729V38.4434ZM68.8916 40.1572C68.8916 39.2256 69.0732 38.3877 69.4365 37.6436C69.8057 36.8994 70.3154 36.3252 70.9658 35.9209C71.6221 35.5166 72.3691 35.3145 73.207 35.3145C74.502 35.3145 75.5479 35.7627 76.3447 36.6592C77.1475 37.5557 77.5488 38.748 77.5488 40.2363V40.3506C77.5488 41.2764 77.3701 42.1084 77.0127 42.8467C76.6611 43.5791 76.1543 44.1504 75.4922 44.5605C74.8359 44.9707 74.0801 45.1758 73.2246 45.1758C71.9355 45.1758 70.8896 44.7275 70.0869 43.8311C69.29 42.9346 68.8916 41.748 68.8916 40.2715V40.1572ZM70.5264 40.3506C70.5264 41.4053 70.7695 42.252 71.2559 42.8906C71.748 43.5293 72.4043 43.8486 73.2246 43.8486C74.0508 43.8486 74.707 43.5264 75.1934 42.8818C75.6797 42.2314 75.9229 41.3232 75.9229 40.1572C75.9229 39.1143 75.6738 38.2705 75.1758 37.626C74.6836 36.9756 74.0273 36.6504 73.207 36.6504C72.4043 36.6504 71.7568 36.9697 71.2646 37.6084C70.7725 38.2471 70.5264 39.1611 70.5264 40.3506ZM79.1572 40.1572C79.1572 39.2256 79.3389 38.3877 79.7021 37.6436C80.0713 36.8994 80.5811 36.3252 81.2314 35.9209C81.8877 35.5166 82.6348 35.3145 83.4727 35.3145C84.7676 35.3145 85.8135 35.7627 86.6104 36.6592C87.4131 37.5557 87.8145 38.748 87.8145 40.2363V40.3506C87.8145 41.2764 87.6357 42.1084 87.2783 42.8467C86.9268 43.5791 86.4199 44.1504 85.7578 44.5605C85.1016 44.9707 84.3457 45.1758 83.4902 45.1758C82.2012 45.1758 81.1553 44.7275 80.3525 43.8311C79.5557 42.9346 79.1572 41.748 79.1572 40.2715V40.1572ZM80.792 40.3506C80.792 41.4053 81.0352 42.252 81.5215 42.8906C82.0137 43.5293 82.6699 43.8486 83.4902 43.8486C84.3164 43.8486 84.9727 43.5264 85.459 42.8818C85.9453 42.2314 86.1885 41.3232 86.1885 40.1572C86.1885 39.1143 85.9395 38.2705 85.4414 37.626C84.9492 36.9756 84.293 36.6504 83.4727 36.6504C82.6699 36.6504 82.0225 36.9697 81.5303 37.6084C81.0381 38.2471 80.792 39.1611 80.792 40.3506ZM90.6533 45V36.7471H89.1504V35.4902H90.6533V34.5146C90.6533 33.4951 90.9258 32.707 91.4707 32.1504C92.0156 31.5938 92.7861 31.3154 93.7822 31.3154C94.1572 31.3154 94.5293 31.3652 94.8984 31.4648L94.8105 32.7832C94.5352 32.7305 94.2422 32.7041 93.9316 32.7041C93.4043 32.7041 92.9971 32.8594 92.71 33.1699C92.4229 33.4746 92.2793 33.9141 92.2793 34.4883V35.4902H94.3096V36.7471H92.2793V45H90.6533ZM101.648 42.4775C101.648 42.0381 101.481 41.6982 101.147 41.458C100.819 41.2119 100.242 41.001 99.416 40.8252C98.5957 40.6494 97.9424 40.4385 97.4561 40.1924C96.9756 39.9463 96.6182 39.6533 96.3838 39.3135C96.1553 38.9736 96.041 38.5693 96.041 38.1006C96.041 37.3213 96.3691 36.6621 97.0254 36.123C97.6875 35.584 98.5312 35.3145 99.5566 35.3145C100.635 35.3145 101.508 35.5928 102.176 36.1494C102.85 36.7061 103.187 37.418 103.187 38.2852H101.552C101.552 37.8398 101.361 37.4561 100.98 37.1338C100.605 36.8115 100.131 36.6504 99.5566 36.6504C98.9648 36.6504 98.502 36.7793 98.168 37.0371C97.834 37.2949 97.667 37.6318 97.667 38.0479C97.667 38.4404 97.8223 38.7363 98.1328 38.9355C98.4434 39.1348 99.0029 39.3252 99.8115 39.5068C100.626 39.6885 101.285 39.9053 101.789 40.1572C102.293 40.4092 102.665 40.7139 102.905 41.0713C103.151 41.4229 103.274 41.8535 103.274 42.3633C103.274 43.2129 102.935 43.8955 102.255 44.4111C101.575 44.9209 100.693 45.1758 99.6094 45.1758C98.8477 45.1758 98.1738 45.041 97.5879 44.7715C97.002 44.502 96.542 44.127 96.208 43.6465C95.8799 43.1602 95.7158 42.6357 95.7158 42.0732H97.3418C97.3711 42.6182 97.5879 43.0518 97.9922 43.374C98.4023 43.6904 98.9414 43.8486 99.6094 43.8486C100.225 43.8486 100.717 43.7256 101.086 43.4795C101.461 43.2275 101.648 42.8936 101.648 42.4775Z" fill="white"/>
</g>
<defs>
<clipPath id="clip0">
<rect width="120" height="50" fill="white"/>
</clipPath>
</defs>
</svg>
