<svg width="30" height="40" viewBox="0 0 30 40" fill="none" xmlns="http://www.w3.org/2000/svg">
<path d="M3 15C3 25 15 38 15 38C15 38 27 25 27 15C27 7.5 21.6274 3 15 3C8.37258 3 3 7.5 3 15Z" fill="#D81B60" stroke="#212121"/>
<path d="M15 10.6667V8H8.33331V20H21.6666V10.6667H15ZM11 18.6667H9.66665V17.3333H11V18.6667ZM11 16H9.66665V14.6667H11V16ZM11 13.3333H9.66665V12H11V13.3333ZM11 10.6667H9.66665V9.33333H11V10.6667ZM13.6666 18.6667H12.3333V17.3333H13.6666V18.6667ZM13.6666 16H12.3333V14.6667H13.6666V16ZM13.6666 13.3333H12.3333V12H13.6666V13.3333ZM13.6666 10.6667H12.3333V9.33333H13.6666V10.6667ZM20.3333 18.6667H15V17.3333H16.3333V16H15V14.6667H16.3333V13.3333H15V12H20.3333V18.6667ZM19 13.3333H17.6666V14.6667H19V13.3333ZM19 16H17.6666V17.3333H19V16Z" fill="white"/>
</svg>
